<svg xmlns="http://www.w3.org/2000/svg" width="128" height="128" viewBox="0 0 128 128" role="img" aria-label="Reportage file icon light theme">
  <defs>
    <linearGradient id="pageFillLight" x1="0" y1="0" x2="1" y2="1">
      <stop offset="0%" stop-color="#48d64d"/>
      <stop offset="100%" stop-color="#21a128"/>
    </linearGradient>
    <linearGradient id="foldFillLight" x1="0" y1="0" x2="1" y2="1">
      <stop offset="0%" stop-color="#d2f8d4"/>
      <stop offset="100%" stop-color="#7ed985"/>
    </linearGradient>
    <filter id="shadowLight" x="-20%" y="-20%" width="140%" height="140%">
      <feDropShadow dx="0" dy="2" stdDeviation="2" flood-color="#000000" flood-opacity="0.18"/>
    </filter>
    <filter id="letterShadowLight" x="-10%" y="-10%" width="120%" height="120%">
      <feDropShadow dx="0" dy="1" stdDeviation="0.6" flood-color="#126517" flood-opacity="0.45"/>
    </filter>
  </defs>

  <path d="M26 8h52l26 26v68c0 10-8 18-18 18H26c-10 0-18-8-18-18V26C8 16 16 8 26 8z"
        fill="url(#pageFillLight)" stroke="#187f1e" stroke-width="2" filter="url(#shadowLight)"/>
  <path d="M78 8v19c0 7.2 5.8 13 13 13h13z" fill="url(#foldFillLight)"/>
  <path d="M91 40h13L78 8v19c0 7.2 5.8 13 13 13z" fill="#ffffff" opacity="0.25"/>

  <text x="64" y="85"
        text-anchor="middle"
        font-family="Arial Black, Arial, Helvetica, sans-serif"
        font-size="56"
        font-weight="900"
        fill="#ffffff"
        letter-spacing="-6"
        filter="url(#letterShadowLight)">RE</text>
</svg>
