<svg xmlns="http://www.w3.org/2000/svg" width="128" height="128" viewBox="0 0 128 128" role="img" aria-label="Reportage file icon dark theme">
  <defs>
    <linearGradient id="pageFillDark" x1="0" y1="0" x2="1" y2="1">
      <stop offset="0%" stop-color="#34c83e"/>
      <stop offset="100%" stop-color="#168a22"/>
    </linearGradient>
    <linearGradient id="foldFillDark" x1="0" y1="0" x2="1" y2="1">
      <stop offset="0%" stop-color="#8de992"/>
      <stop offset="100%" stop-color="#3eb54b"/>
    </linearGradient>
    <filter id="shadowDark" x="-20%" y="-20%" width="140%" height="140%">
      <feDropShadow dx="0" dy="2" stdDeviation="2" flood-color="#000000" flood-opacity="0.24"/>
    </filter>
    <filter id="letterShadowDark" x="-10%" y="-10%" width="120%" height="120%">
      <feDropShadow dx="0" dy="1" stdDeviation="0.6" flood-color="#0e5a15" flood-opacity="0.55"/>
    </filter>
  </defs>

  <path d="M26 8h52l26 26v68c0 10-8 18-18 18H26c-10 0-18-8-18-18V26C8 16 16 8 26 8z"
        fill="url(#pageFillDark)" stroke="#9af39e" stroke-width="2" filter="url(#shadowDark)"/>
  <path d="M78 8v19c0 7.2 5.8 13 13 13h13z" fill="url(#foldFillDark)"/>
  <path d="M91 40h13L78 8v19c0 7.2 5.8 13 13 13z" fill="#ffffff" opacity="0.18"/>

  <text x="64" y="85"
        text-anchor="middle"
        font-family="Arial Black, Arial, Helvetica, sans-serif"
        font-size="56"
        font-weight="900"
        fill="#ffffff"
        letter-spacing="-6"
        filter="url(#letterShadowDark)">RE</text>
</svg>
